<svg width="23" height="17" viewBox="0 0 23 17" fill="none" xmlns="http://www.w3.org/2000/svg">
<path d="M22.9423 2.38022V7.37484H21.2408V2.98397C21.2408 2.32533 20.7469 1.83136 20.0882 1.83136H2.14055V5.61849L0 2.54488L0.109772 1.83136C0.329315 0.843414 1.20749 0.0750122 2.30521 0.0750122H20.5822C21.8995 0.0750122 22.9423 1.11784 22.9423 2.38022Z" fill="#166534"/>
<path d="M21.186 10.9973H22.8874V14.4551C22.8874 15.1138 22.3935 15.6077 21.7348 15.6077H21.186V10.9973Z" fill="#166534"/>
<path d="M15.3132 7.64928C14.929 8.03348 14.6545 8.58234 14.6545 9.18609C14.6545 10.3936 15.6425 11.3266 16.7951 11.3266H21.5153V15.7724C21.5153 16.431 21.0213 16.925 20.3627 16.925H1.1526C0.493973 16.925 0 16.431 0 15.7724V2.59978C0 1.94115 0.493973 1.44717 1.1526 1.44717H20.4176C21.0762 1.44717 21.5702 1.94115 21.5702 2.59978V7.04554H16.85C16.2462 7.04554 15.6974 7.26508 15.3132 7.64928Z" fill="#16A34A"/>
<g filter="url(#filter0_i_11_29)">
<path d="M1.48193 15.498V2.92908H20.0334V5.5636H16.7951C15.8072 5.5636 14.929 5.9478 14.2155 6.60643C13.5019 7.31995 13.1726 8.19812 13.1726 9.18607C13.1726 11.2168 14.8192 12.8085 16.7951 12.8085H20.0334V15.4431H1.48193V15.498Z" fill="#4ADE80"/>
</g>
<path d="M22.9423 11.3815H16.4657C15.2583 11.3815 14.3252 10.3936 14.3252 9.24095C14.3252 8.03346 15.3131 7.1004 16.4657 7.1004H22.9423V11.3815Z" fill="#FBBF24"/>
<path opacity="0.1" d="M20.5273 7.75905C20.5273 7.53951 20.5273 7.26508 20.4724 7.04553H16.4657C15.2583 7.04553 14.3252 8.03348 14.3252 9.18608C14.3252 9.8996 14.6545 10.5033 15.2034 10.9424C15.6973 11.2169 16.3011 11.3815 16.9048 11.3815C18.8807 11.3815 20.5273 9.73494 20.5273 7.75905Z" fill="#14532D"/>
<path d="M16.9049 10.3936C17.5718 10.3936 18.1124 9.85295 18.1124 9.18607C18.1124 8.51919 17.5718 7.97858 16.9049 7.97858C16.238 7.97858 15.6974 8.51919 15.6974 9.18607C15.6974 9.85295 16.238 10.3936 16.9049 10.3936Z" fill="white"/>
<path opacity="0.1" d="M17.5635 8.14325C17.6733 8.30791 17.7831 8.58234 17.7831 8.80188C17.7831 9.46051 17.2342 10.0094 16.5756 10.0094C16.356 10.0094 16.0816 9.95448 15.9169 9.78983C16.1365 10.1191 16.5207 10.3387 16.9598 10.3387C17.6184 10.3387 18.1673 9.78983 18.1673 9.1312C18.1124 8.74699 17.8928 8.36279 17.5635 8.14325Z" fill="#231F20"/>
<defs>
<filter id="filter0_i_11_29" x="1.48193" y="2.92908" width="18.5515" height="12.5689" filterUnits="userSpaceOnUse" color-interpolation-filters="sRGB">
<feFlood flood-opacity="0" result="BackgroundImageFix"/>
<feBlend mode="normal" in="SourceGraphic" in2="BackgroundImageFix" result="shape"/>
<feColorMatrix in="SourceAlpha" type="matrix" values="0 0 0 0 0 0 0 0 0 0 0 0 0 0 0 0 0 0 127 0" result="hardAlpha"/>
<feOffset/>
<feGaussianBlur stdDeviation="1.5"/>
<feComposite in2="hardAlpha" operator="arithmetic" k2="-1" k3="1"/>
<feColorMatrix type="matrix" values="0 0 0 0 0 0 0 0 0 0 0 0 0 0 0 0 0 0 0.15 0"/>
<feBlend mode="normal" in2="shape" result="effect1_innerShadow_11_29"/>
</filter>
</defs>
</svg>
